<?xml version="1.0" standalone="no"?>
<!DOCTYPE svg PUBLIC "-//W3C//DTD SVG 20010904//EN"
 "http://www.w3.org/TR/2001/REC-SVG-20010904/DTD/svg10.dtd">
<svg version="1.0" xmlns="http://www.w3.org/2000/svg"
 width="300.000000pt" height="300.000000pt" viewBox="0 0 300.000000 300.000000"
 preserveAspectRatio="xMidYMid meet">
<metadata>
Created by potrace 1.10, written by Peter Selinger 2001-2011
</metadata>
<g transform="translate(0.000000,300.000000) scale(0.100000,-0.100000)"
fill="#000000" stroke="none">
<path d="M2176 2727 c-3 -14 -21 -30 -43 -41 l-38 -18 30 -12 c40 -17 56 -38
57 -76 2 -47 14 -45 33 6 13 33 26 50 51 62 19 8 34 18 34 21 0 4 -13 12 -28
19 -16 7 -35 23 -42 37 -17 31 -46 32 -54 2z"/>
<path d="M1909 2561 c-14 -10 -35 -42 -49 -70 -23 -50 -40 -65 -40 -37 0 26
-23 31 -185 39 l-40 2 -3 -77 c-3 -72 -11 -93 -27 -68 -12 19 -43 10 -83 -22
-22 -18 -48 -38 -58 -44 -23 -13 -17 -29 54 -146 45 -77 62 -93 62 -62 0 8 5
12 10 9 18 -11 11 15 -25 91 -34 74 -34 75 -15 94 25 25 37 25 45 0 3 -11 10
-20 14 -20 4 0 11 -53 14 -118 3 -65 10 -130 16 -144 16 -44 -6 -45 -49 -3
-22 21 -37 42 -34 47 3 5 -16 28 -43 51 -26 23 -73 65 -104 94 -60 57 -82 64
-99 32 -10 -17 -7 -25 22 -52 121 -113 403 -347 419 -347 17 0 9 -27 -16 -50
-29 -27 -24 -30 -178 89 -53 42 -137 106 -185 143 -47 36 -96 78 -108 93 -16
20 -27 25 -43 20 -29 -9 -27 -49 3 -72 13 -11 47 -40 76 -66 l52 -47 -71 -77
c-39 -43 -74 -88 -77 -100 -8 -31 2 -54 25 -60 11 -3 22 -16 25 -29 5 -17 15
-25 44 -29 75 -13 76 -14 53 -39 -33 -35 -29 -97 10 -141 17 -19 41 -38 54
-41 18 -4 24 -14 28 -52 4 -36 12 -52 36 -73 22 -18 31 -34 31 -56 0 -17 11
-47 25 -68 23 -34 25 -41 14 -74 -15 -46 -33 -67 -88 -99 l-44 -25 -19 26
c-24 33 -54 34 -110 6 l-40 -21 -27 26 c-24 23 -36 26 -93 26 -37 0 -70 4 -73
10 -3 5 -14 10 -23 10 -10 0 -36 9 -57 21 -58 30 -147 37 -300 22 -103 -11
-120 -18 -187 -81 -106 -99 -152 -238 -123 -374 15 -74 27 -102 58 -136 37
-40 13 -47 -136 -44 -105 2 -136 0 -152 -12 -16 -12 -18 -18 -9 -33 10 -16 32
-19 210 -23 159 -5 206 -9 236 -23 34 -15 95 -17 615 -21 318 -2 587 -4 598
-4 11 0 164 3 340 6 282 6 324 9 348 25 23 15 54 17 256 17 193 0 232 2 245
15 16 17 12 40 -9 49 -7 2 -245 8 -529 12 -284 4 -516 10 -516 13 0 3 14 14
30 23 21 12 30 25 30 43 0 31 4 31 63 -1 27 -14 58 -24 70 -22 20 3 22 8 19
60 -4 84 25 128 84 128 44 0 51 18 30 70 -14 36 -14 44 -2 75 8 19 26 39 38
44 53 20 59 66 9 77 -74 16 -76 18 -79 67 -3 51 0 54 83 59 55 4 59 30 11 74
-40 37 -48 84 -21 120 18 24 19 48 2 63 -10 8 -35 7 -93 -4 -74 -15 -80 -14
-92 2 -18 26 -10 36 38 48 24 6 48 18 53 26 14 22 2 49 -21 49 -10 0 -29 11
-41 24 -24 25 -25 53 -6 128 9 35 -14 46 -61 29 -27 -10 -38 -9 -62 3 -36 19
-43 42 -29 96 13 47 -2 67 -36 48 -25 -13 -34 -3 -16 18 19 23 71 44 107 44
16 0 56 -12 88 -27 103 -46 179 -38 316 35 3 2 18 -14 32 -35 29 -42 32 -76
14 -152 -9 -42 -9 -57 6 -95 21 -55 51 -80 78 -65 17 9 17 11 -3 51 -21 42
-22 49 -3 165 9 55 1 81 -40 135 l-34 45 34 68 c29 58 34 77 34 139 -1 82 -14
124 -57 184 -61 83 -134 122 -245 130 -53 3 -78 9 -78 17 0 17 -39 41 -86 54
-22 6 -53 24 -69 41 -34 35 -35 36 -66 11z m75 -92 l44 -22 -34 -47 c-85 -118
-142 -305 -116 -379 6 -17 8 -32 4 -34 -14 -8 -71 23 -83 45 -21 39 -5 155 36
254 56 136 88 204 97 204 4 0 27 -10 52 -21z m-167 -49 c25 -16 23 -44 -9 -95
l-18 -30 -1 25 c-4 62 -7 86 -13 102 -9 20 8 19 41 -2z m-75 -96 c-1 -55 -8
-136 -14 -181 -9 -71 -9 -88 5 -125 19 -49 51 -75 72 -58 7 6 24 8 37 5 26 -7
83 29 73 46 -4 5 -2 9 3 9 4 0 16 -15 25 -32 13 -25 15 -27 10 -8 -15 54 -18
107 -10 159 15 104 89 241 138 256 34 11 31 1 -14 -47 -62 -64 -100 -161 -101
-258 -1 -82 9 -124 24 -101 6 11 12 6 25 -18 9 -18 32 -48 51 -66 l34 -33 -53
14 c-64 17 -111 10 -158 -25 -39 -28 -46 -64 -16 -86 29 -21 21 -42 -14 -37
-17 2 -40 0 -52 -6 -34 -16 -60 -25 -87 -29 -14 -2 -38 -10 -55 -18 -16 -7
-41 -17 -54 -20 -19 -6 -23 -4 -18 9 8 21 -2 20 -85 -5 -67 -20 -71 -20 -146
-3 -42 9 -90 27 -107 38 -16 12 -31 22 -33 22 -2 1 24 30 56 64 l59 63 46 -18
c25 -9 83 -42 129 -71 45 -30 89 -54 98 -54 13 0 13 2 0 11 -11 8 -9 9 10 3
14 -3 31 -10 39 -14 8 -4 20 -3 28 4 51 44 68 64 65 79 -4 19 -49 67 -100 107
l-31 25 80 -2 c57 -1 79 2 76 10 -2 7 -17 13 -33 15 -16 1 -48 5 -72 8 l-43 5
5 147 c3 81 5 187 5 235 l1 88 53 -4 52 -5 -3 -98z m600 0 c58 -41 98 -119 98
-191 0 -100 -82 -219 -167 -242 -85 -24 -148 -7 -200 52 -40 46 -57 106 -49
175 10 85 72 189 134 222 54 29 129 23 184 -16z m-932 -444 c49 -43 41 -49
-33 -24 -48 16 -52 20 -41 48 9 24 25 19 74 -24z m460 -188 c0 -10 7 -27 15
-38 8 -10 15 -22 15 -26 0 -3 -43 -20 -96 -37 -53 -17 -152 -51 -220 -76 -163
-59 -224 -59 -224 1 0 23 38 45 85 48 14 0 25 5 25 10 0 4 7 6 15 2 8 -3 15
-2 15 3 0 5 17 13 38 19 57 17 261 90 280 102 27 15 52 12 52 -8z m-466 -64
c40 -11 78 -33 46 -27 -20 5 -100 -28 -100 -41 0 -5 -5 -10 -10 -10 -7 0 -7 7
0 20 6 12 10 28 9 38 -3 37 -4 37 55 20z m575 -22 c9 -11 5 -14 -21 -19 -18
-3 -42 -9 -53 -13 -18 -6 -17 -4 4 19 27 30 52 34 70 13z m35 -74 c3 -21 15
-47 26 -57 21 -19 20 -19 -82 -47 -339 -93 -449 -118 -468 -108 -11 6 -20 15
-20 20 0 4 -3 15 -6 23 -3 8 2 21 10 30 15 15 199 77 229 77 17 0 254 78 277
91 24 14 27 11 34 -29z m-554 -99 c0 -5 -4 -14 -9 -22 -8 -13 -12 -13 -27 -1
-15 14 -15 15 7 21 13 4 25 7 27 8 1 1 2 -2 2 -6z m544 -88 c3 -9 0 -17 -7
-19 -14 -5 -264 -52 -322 -62 -49 -8 -84 -25 -109 -53 -11 -12 -26 -21 -35
-21 -11 0 -12 3 -4 8 6 4 11 16 10 27 -2 24 33 36 273 93 196 47 186 46 194
27z m41 -35 c-3 -5 0 -11 7 -11 7 -1 -3 -5 -22 -8 -43 -8 -49 -5 -24 14 22 16
48 20 39 5z m-511 -56 c-13 -19 -19 -22 -25 -12 -16 24 -9 38 16 38 25 0 25 0
9 -26z m639 -7 c-3 -21 1 -46 11 -65 9 -18 13 -32 9 -32 -5 0 -127 -16 -272
-34 -285 -37 -306 -36 -318 12 -13 52 8 63 162 82 55 7 165 25 245 40 80 16
150 28 157 29 8 1 10 -10 6 -32z m-590 -54 c-7 -3 -13 -16 -13 -29 0 -28 -7
-30 -32 -8 -17 16 -16 17 15 33 17 9 34 15 37 13 3 -3 -1 -7 -7 -9z m367 -124
c-11 -8 9 -9 73 -6 l87 5 0 -29 c0 -25 -2 -28 -22 -20 -39 15 -128 24 -128 13
0 -5 7 -13 16 -16 39 -15 1 -16 -72 -1 -126 25 -128 25 -117 36 9 9 100 25
153 28 20 0 22 -1 10 -10z m-340 -24 c13 -11 367 -90 553 -123 l28 -4 -22 -24
c-14 -15 -22 -37 -23 -61 -1 -28 -5 -37 -16 -34 -20 5 -250 75 -385 117 -61
19 -115 34 -120 34 -20 0 -55 45 -55 70 0 41 13 49 40 25z m-960 -10 c0 -2 -7
-11 -16 -20 -12 -12 -19 -13 -29 -5 -21 17 -8 38 21 32 13 -2 24 -6 24 -7z
m138 -17 c-3 -7 -22 -18 -43 -24 -26 -7 -34 -12 -23 -16 9 -4 21 -1 28 5 15
15 6 -19 -21 -78 -10 -22 -39 -98 -64 -170 -26 -71 -50 -134 -56 -139 -5 -6
-9 -19 -9 -30 1 -21 1 -21 15 -2 8 11 16 18 18 15 2 -2 16 -26 31 -52 21 -37
31 -46 40 -38 7 6 27 8 45 5 21 -5 37 -2 49 8 9 8 25 18 36 22 12 4 17 13 13
26 -3 11 -2 18 2 15 4 -2 8 8 9 23 1 39 5 51 49 159 14 35 28 61 32 58 4 -2 4
-35 0 -72 -4 -37 -10 -117 -14 -178 -6 -101 -5 -112 13 -131 24 -25 94 -39
122 -24 26 14 41 44 46 94 7 64 7 65 16 60 4 -3 8 -16 8 -29 0 -13 4 -26 9
-29 4 -3 11 -19 15 -36 7 -37 28 -46 95 -42 74 6 63 24 -11 21 l-63 -3 -12 75
c-6 41 -12 131 -12 202 -1 87 -5 127 -12 127 -8 0 -10 16 -6 48 4 35 1 52 -10
65 -9 9 -13 20 -9 24 10 10 81 -32 80 -46 -1 -6 -2 -29 -2 -52 -1 -24 -6 -38
-12 -34 -16 10 -12 -19 13 -92 13 -37 32 -93 42 -123 30 -90 71 -163 109 -193
37 -28 46 -52 24 -59 -7 -2 -188 -4 -403 -4 -322 1 -394 4 -415 16 -29 16 -30
16 -88 18 -48 2 -65 23 -39 49 15 15 19 14 51 -10 19 -15 47 -27 61 -27 25 0
25 2 -16 33 -55 42 -105 107 -119 155 -17 63 -12 165 11 229 24 64 100 148
144 159 34 8 42 -1 22 -24 -27 -30 -67 -127 -82 -200 -23 -111 6 -268 59 -311
24 -20 26 -12 11 34 -10 27 -10 35 -2 24 73 -97 91 -105 39 -17 l-37 63 1 120
c0 99 4 130 23 176 29 75 75 137 114 154 41 18 90 19 85 3z m751 -46 c-17 -6
-9 -28 19 -54 20 -20 93 -48 277 -108 138 -45 251 -83 253 -85 2 -2 -8 -14
-21 -27 -13 -13 -27 -42 -30 -65 l-7 -41 -77 38 c-43 20 -88 41 -101 44 -12 4
-20 12 -17 17 3 5 0 6 -8 3 -8 -3 -17 1 -20 9 -3 8 -41 29 -84 47 -156 65
-173 79 -137 114 13 13 13 16 1 16 -22 0 -39 -27 -32 -49 6 -20 45 -41 178
-96 37 -15 66 -30 64 -32 -6 -6 -76 22 -179 70 -106 50 -118 63 -118 138 0 23
-5 39 -12 39 -6 0 -9 -3 -5 -6 3 -3 -5 -17 -19 -31 -27 -26 -29 -39 -14 -78
13 -34 31 -52 96 -95 57 -38 274 -221 274 -231 0 -14 -63 -84 -75 -84 -13 0
-238 242 -287 309 -15 21 -36 63 -45 93 l-17 55 34 29 c21 17 29 29 20 29 -8
0 5 17 30 39 44 38 45 39 57 17 7 -12 8 -22 2 -24z m-629 18 l40 -20 -21 -53
c-42 -103 -71 -184 -105 -281 -19 -55 -38 -104 -43 -109 -11 -11 -101 23 -101
38 0 12 52 153 110 295 23 58 46 115 51 128 11 27 19 27 69 2z m1240 -10 c13
-24 4 -25 -52 -9 -49 13 -48 23 2 26 31 2 42 -2 50 -17z m-753 -45 c13 4 14 3
4 -9 -7 -8 -15 -26 -19 -40 -7 -25 -8 -24 -36 25 l-28 51 32 -17 c17 -9 39
-14 47 -10z m-290 1 c-13 -33 -19 -92 -30 -291 l-12 -210 -49 -3 c-27 -2 -52
0 -56 5 -4 4 -4 42 0 83 5 41 14 152 20 247 l13 172 46 4 c25 2 52 4 60 5 8 1
11 -4 8 -12z m234 -106 c50 -123 64 -155 122 -269 52 -106 54 -111 32 -111 -9
0 -34 -9 -55 -20 l-40 -20 -16 37 c-8 21 -34 91 -55 157 -22 65 -57 158 -78
206 l-38 88 36 15 c20 8 40 14 44 13 5 -1 26 -44 48 -96z m829 -77 c0 -8 -12
-13 -34 -13 -18 0 -39 6 -45 13 -9 11 -2 14 34 14 31 0 45 -5 45 -14z m-491
-48 c21 -2 74 -24 206 -85 39 -18 63 -35 55 -37 -8 -2 -28 -22 -44 -44 -21
-30 -31 -37 -37 -28 -5 9 1 21 19 35 24 20 25 24 13 47 -8 15 -25 27 -44 31
-45 9 -44 0 2 -24 23 -11 41 -25 41 -30 0 -19 -35 -9 -69 20 -26 22 -37 26
-43 17 -4 -6 -8 -7 -8 -2 0 6 -17 21 -38 35 -38 26 -108 89 -83 75 7 -4 21 -9
30 -10z m-169 -86 c25 -28 55 -62 68 -75 13 -13 20 -24 17 -24 -4 0 26 -31 66
-70 39 -38 77 -70 83 -70 15 0 26 9 65 55 19 22 36 40 37 40 1 0 14 -11 29
-25 26 -25 28 -25 233 -27 114 -2 238 -3 276 -4 l69 -2 -39 -20 c-37 -20 -59
-21 -489 -23 -247 -1 -456 1 -464 6 -11 6 -8 11 16 23 33 18 56 42 59 64 2 8
-15 51 -37 95 -21 44 -36 84 -34 88 3 5 -1 11 -7 13 -7 3 -8 6 -3 6 6 0 30
-22 55 -50z"/>
<path d="M1304 1772 c-24 -19 -49 -62 -37 -62 4 0 23 18 41 40 34 42 32 52 -4
22z"/>
<path d="M1327 1729 c-10 -18 -16 -33 -14 -35 8 -8 39 35 35 50 -2 11 -8 6
-21 -15z"/>
<path d="M2247 2222 c-17 -19 -22 -68 -9 -88 4 -6 17 -16 29 -23 30 -15 80 9
89 43 6 24 -10 65 -30 78 -20 14 -63 8 -79 -10z m63 -46 c0 -20 -19 -31 -32
-18 -6 6 -7 15 -4 21 10 16 36 13 36 -3z"/>
<path d="M2071 2140 c0 -19 5 -47 13 -62 18 -34 80 -89 119 -105 39 -17 107
-16 131 2 17 13 16 14 -17 8 -103 -16 -205 53 -236 159 l-9 33 -1 -35z"/>
<path d="M668 952 c-11 -14 -11 -15 5 -9 22 8 35 -19 18 -36 -10 -9 -15 -8
-25 6 -12 16 -16 12 -35 -32 -30 -70 -54 -250 -32 -237 5 3 12 37 16 75 6 61
11 74 41 105 19 19 34 42 34 51 0 9 6 26 14 38 12 19 11 24 -5 39 -16 15 -19
15 -31 0z m12 -73 c0 -17 -20 -49 -30 -49 -6 0 -10 14 -10 30 0 23 4 30 20 30
11 0 20 -5 20 -11z"/>
<path d="M420 718 c0 -13 3 -41 7 -63 6 -34 8 -36 13 -16 7 32 0 101 -11 101
-5 0 -9 -10 -9 -22z"/>
<path d="M1650 567 c0 -16 87 -94 95 -86 2 3 -18 27 -45 53 -32 31 -50 43 -50
33z"/>
<path d="M2437 2529 c-10 -18 -16 -34 -13 -36 8 -9 26 8 41 38 22 41 -4 39
-28 -2z"/>
<path d="M2628 2436 c-16 -22 -16 -24 7 -46 l23 -22 21 21 c27 27 26 35 -4 55
-30 20 -27 20 -47 -8z"/>
<path d="M2651 2231 c-14 -4 -26 -12 -29 -19 -5 -16 2 -15 73 7 59 19 60 19
20 19 -22 0 -51 -3 -64 -7z"/>
<path d="M2734 2068 c-20 -23 -20 -23 8 -52 21 -21 28 -24 28 -12 0 9 11 22
25 28 l25 11 -26 24 c-31 29 -36 29 -60 1z"/>
<path d="M2505 310 c28 -12 63 -12 70 0 4 6 -12 10 -42 9 -36 0 -43 -3 -28 -9z"/>
</g>
</svg>
